<?xml version="1.0" standalone="no"?><!DOCTYPE svg PUBLIC "-//W3C//DTD SVG 1.1//EN" "http://www.w3.org/Graphics/SVG/1.1/DTD/svg11.dtd"><svg t="1631980879064" class="icon" viewBox="0 0 1024 1024" version="1.1" xmlns="http://www.w3.org/2000/svg" p-id="2630" xmlns:xlink="http://www.w3.org/1999/xlink" width="200" height="200"><defs><style type="text/css"></style></defs><path d="M950.784 470.016L527.872 102.4a28.723 28.723 0 0 0-37.376 0L73.216 473.088c-8.704 7.68-11.776 19.968-7.68 31.232 4.096 10.752 14.848 18.432 26.624 18.432h58.368V814.08c-1.024 10.24-3.072 47.616 20.992 74.752 10.752 12.288 31.232 27.648 66.56 27.648h531.968c12.8 0 43.52-2.56 68.096-25.088 13.312-12.288 29.696-35.84 29.696-76.288V522.24l65.024-2.048c11.776-0.512 22.016-7.68 25.6-18.944 4.096-11.264 1.024-23.552-7.68-31.232z m-512.512 389.12v-194.56c0.512-1.536 1.536-3.584 4.096-5.632 5.12-5.12 21.504-16.384 67.584-16.384 39.936 0 56.832 9.216 63.488 14.336 6.144 4.608 7.168 9.216 7.168 10.24v192H438.272z m432.64-385.024h-49.664V816.64c0 29.696-24.064 53.248-53.248 53.248H628.736V637.44c-0.512-1.536-2.048-9.216-11.776-16.896-11.264-9.216-39.936-24.064-106.496-24.064-77.312 0-104.96 19.456-113.152 27.648-4.096 4.096-5.632 7.68-6.656 9.728V870.4H250.88c-29.696 0-53.248-24.064-53.248-53.248V475.136h-49.664c-4.096 0-6.144-5.12-3.072-8.192L499.2 158.72c5.632-4.608 13.824-4.608 19.456 0l355.328 307.712c3.072 2.56 1.024 7.68-3.072 7.68z" p-id="2631"></path></svg>